<?xml version="1.0" encoding="utf-8"?>
<!-- Generator: Adobe Illustrator 22.1.0, SVG Export Plug-In . SVG Version: 6.00 Build 0)  -->
<svg version="1.1" id="图层_1" xmlns="http://www.w3.org/2000/svg" xmlns:xlink="http://www.w3.org/1999/xlink" x="0px" y="0px"
	 viewBox="0 0 200 200" style="enable-background:new 0 0 200 200;" xml:space="preserve">
<style type="text/css">
	.st0{fill:#FFFFFF;}
</style>
<path class="st0" d="M196.7,196.7c-4.4,4.5-11.7,4.5-16.1,0l-17.8-17.8c-4.5-4.4-4.6-11.6-0.2-16.1c4.4-4.5,11.6-4.6,16.1-0.2
	c0.1,0.1,0.1,0.1,0.2,0.2l17.8,17.7C201.1,185,201.1,192.2,196.7,196.7z M90.8,181.5C40.7,181.5,0,140.9,0,90.8S40.7,0,90.8,0
	s90.8,40.6,90.8,90.8l0,0h0C181.5,140.9,140.9,181.5,90.8,181.5z M141.7,40.7v-0.2l-0.5-0.2c-28-27.8-73.2-27.7-101,0.3
	s-27.7,73.2,0.3,101c27.9,27.8,73,27.7,100.9-0.1l0.3-0.4C169.1,113.1,169.1,68.5,141.7,40.7z M131.6,101.1l-7.9,25.3
	c-1.2,4.5-5.8,7.3-10.3,6.1c-2.9-0.7-5.2-2.9-6-5.8L87.5,69.9L69.4,98.5c-2.3,3.5-6.2,5.7-10.4,5.7H38.3c-4.2-0.2-7.5-3.8-7.2-8
	c0.2-3.9,3.3-7,7.3-7.2h19l24.3-38.5c2.4-4.2,7.7-5.6,11.9-3.2c1.9,1.1,3.4,2.9,4,5l17.7,49.9l2.7-8.6c1.5-4.6,5.8-7.7,10.7-7.8v0
	h12.2c4.2,0.2,7.5,3.8,7.2,8c-0.2,3.9-3.3,7-7.3,7.2L131.6,101.1L131.6,101.1z"/>
</svg>
