<?xml version="1.0" encoding="utf-8"?>
<!-- Generator: Adobe Illustrator 22.1.0, SVG Export Plug-In . SVG Version: 6.00 Build 0)  -->
<svg version="1.1" id="图层_1" xmlns="http://www.w3.org/2000/svg" xmlns:xlink="http://www.w3.org/1999/xlink" x="0px" y="0px"
	 viewBox="0 0 200 200" style="enable-background:new 0 0 200 200;" xml:space="preserve">
<style type="text/css">
	.st0{fill:#005DEF;}
</style>
<path class="st0" d="M100,168.8c3.5,0,6.3-2.8,6.3-6.3c0,0,0,0,0,0c0-3.5-2.9-6.3-6.3-6.3c0,0,0,0,0,0c-3.5,0-6.3,2.8-6.3,6.3
	c0,0,0,0,0,0C93.7,165.9,96.5,168.8,100,168.8z M49.2,118.8c3.5,0,6.3-2.8,6.3-6.3c0,0,0,0,0,0c0-3.5-2.9-6.3-6.3-6.3c0,0,0,0,0,0
	c-3.5,0-6.3,2.8-6.4,6.2c0,0,0,0,0,0C42.9,115.9,45.7,118.7,49.2,118.8L49.2,118.8z M150.8,118.8c3.5,0,6.3-2.8,6.4-6.2c0,0,0,0,0,0
	c0-3.5-2.9-6.3-6.3-6.3c0,0,0,0,0,0c-3.5,0-6.3,2.8-6.3,6.3c0,0,0,0,0,0C144.4,115.9,147.3,118.8,150.8,118.8z M100,68.8
	c3.5,0,6.3-2.8,6.3-6.3c0,0,0,0,0,0c0-3.5-2.9-6.3-6.3-6.3c0,0,0,0,0,0c-3.5,0-6.3,2.8-6.3,6.3c0,0,0,0,0,0
	C93.7,65.9,96.5,68.8,100,68.8z M97.7,101.4c-2.3,2.7-2.1,6.8,0.4,9.3l3.7,3.6c2.5,2.4,6.3,2.3,8.6-0.4L134,86.1
	c2.3-2.7,2.1-6.8-0.4-9.3l-3.7-3.6c-2.2-2.3-5.9-2.3-8.1-0.1c-0.2,0.2-0.3,0.3-0.5,0.5L97.7,101.4L97.7,101.4z M100,181.2
	c38.6,0,69.8-30.8,69.8-68.7S138.6,43.7,100,43.7s-69.8,30.8-69.8,68.8C30.2,150.5,61.4,181.3,100,181.2L100,181.2z M166,53.8
	c14.8,16,22.9,36.9,22.9,58.7c0,48.3-39.8,87.5-88.9,87.5s-88.9-39.2-88.9-87.5C11.1,64.2,50.9,25,100,25c19.7,0,37.9,6.3,52.6,17
	l12.7-12.6c2.5-2.5,6.5-2.4,9,0l3.7,3.6c2.5,2.5,2.5,6.4,0,8.9L166,53.8L166,53.8z M82,0C81.3,2,81,4.1,81,6.3
	C81,16.6,89.5,25,100,25c10.5,0,19-8.4,19-18.8c0-2.2-0.4-4.3-1.1-6.2C118,0,82,0,82,0z"/>
</svg>
