<?xml version="1.0" encoding="utf-8"?>
<!-- Generator: Adobe Illustrator 22.1.0, SVG Export Plug-In . SVG Version: 6.00 Build 0)  -->
<svg version="1.1" id="图层_1" xmlns="http://www.w3.org/2000/svg" xmlns:xlink="http://www.w3.org/1999/xlink" x="0px" y="0px"
	 viewBox="0 0 200 200" style="enable-background:new 0 0 200 200;" xml:space="preserve">
<style type="text/css">
	.st0{fill:#005DEF;}
</style>
<path class="st0" d="M32.5,167.5h135.1V32.5H32.5V167.5z M48.4,48.4h103.1v103.1H48.4C48.4,151.6,48.4,48.4,48.4,48.4z M19,49.7H3V3
	h16V49.7z M49.7,3v16H3V3C3,3,49.7,3,49.7,3z M181,3h16v46.7h-16V3z M197,3v16h-46.7V3H197z M19,197H3v-46.7h16V197z M3,197v-16
	h46.7v16H3z M181,150.3h16V197h-16V150.3z M150.3,197v-16H197v16H150.3z"/>
</svg>
