<?xml version="1.0" encoding="utf-8"?>
<!-- Generator: Adobe Illustrator 22.1.0, SVG Export Plug-In . SVG Version: 6.00 Build 0)  -->
<svg version="1.1" id="图层_1" xmlns="http://www.w3.org/2000/svg" xmlns:xlink="http://www.w3.org/1999/xlink" x="0px" y="0px"
	 viewBox="0 0 1024 1024" style="enable-background:new 0 0 1024 1024;" xml:space="preserve">
<style type="text/css">
	.st0{fill:#A0BFF3;}
</style>
<path class="st0" d="M501.5,911v103.4H607l301.9-304L803.5,607L501.5,911z M720.7,1H168.6C87.9,1,23.8,65.1,23.8,145.8v723.8
	c0,80.7,66.2,144.8,144.8,144.8h200.6V884.1l496.3-506.7V145.8C865.5,65.1,801.4,1,720.7,1z M462.2,658.7H282.3
	c-33.1,0-60-26.9-60-60s26.9-60,60-60h179.9c33.1,0,60,26.9,60,60S495.3,658.7,462.2,658.7z M584.2,418.8H282.3
	c-33.1,0-60-26.9-60-60c0-33.1,26.9-60,60-60h301.9c33.1,0,60,26.9,60,60S617.3,418.8,584.2,418.8L584.2,418.8z M925.5,528.4
	c-4.1-6.2-12.4-8.3-18.6-8.3c-8.3,0-14.5,2.1-18.6,8.3L838.6,578l105.5,103.4l47.6-51.7c6.2-4.1,8.3-12.4,8.3-18.6
	c0-8.3-2.1-14.5-8.3-18.6L925.5,528.4z"/>
</svg>
