<?xml version="1.0" encoding="utf-8"?>
<!-- Generator: Adobe Illustrator 22.1.0, SVG Export Plug-In . SVG Version: 6.00 Build 0)  -->
<svg version="1.1" id="图层_1" xmlns="http://www.w3.org/2000/svg" xmlns:xlink="http://www.w3.org/1999/xlink" x="0px" y="0px"
	 viewBox="0 0 1024 1024" style="enable-background:new 0 0 1024 1024;" xml:space="preserve">
<style type="text/css">
	.st0{fill:#FAD63B;}
	.st1{fill:#FAD63B;fill-opacity:0.3;}
</style>
<g>
	<path class="st0" d="M467.3,14.5H94.2c-45.7,0.1-82.8,37.2-82.9,82.9v663.2c0,45.6,37.3,82.9,82.9,82.9h373.1v82.9H260v82.9h497.4
		v-82.9H550.1v-82.9h373.1c45.7-0.1,82.8-37.2,82.9-82.9V553.4C708.5,553.3,467.3,312.1,467.3,14.5z"/>
	<path class="st1" d="M633.1,14.5h-82.9c0,251.8,204.2,456,456,456v-82.9C800.1,387.6,633.1,220.6,633.1,14.5z M923.2,14.5h-41.4
		c0,68.7,55.7,124.4,124.4,124.4V97.5C1006,51.7,968.9,14.7,923.2,14.5z"/>
	<path class="st1" d="M798.8,14.5H716c0,160.2,129.9,290.1,290.1,290.1v-82.9C891.6,221.8,798.8,129,798.8,14.5z"/>
</g>
</svg>
