<?xml version="1.0" encoding="utf-8"?>
<!-- Generator: Adobe Illustrator 22.1.0, SVG Export Plug-In . SVG Version: 6.00 Build 0)  -->
<svg version="1.1" id="图层_1" xmlns="http://www.w3.org/2000/svg" xmlns:xlink="http://www.w3.org/1999/xlink" x="0px" y="0px"
	 viewBox="0 0 1024 1024" style="enable-background:new 0 0 1024 1024;" xml:space="preserve">
<style type="text/css">
	.st0{fill:#EB613C;}
</style>
<path class="st0" d="M329.9,539.5c-4.2,5.3-20.8,23.9-24.1,28.5c-16.5,22.8-20.9,58.5-14.5,80.3c9.1,30.9,39.9,34.4,62.7,36.6
	c53,5.3,106.9,1.8,160.3,1.8c52.2,0,104.4-0.7,156.4,0.3c30.9,0.6,56.8-8,69.7-37c13.7-30.9,6.7-60.2-16.6-85.1
	c-8.3-8.8-16.7-17.3-25.2-25.8c-19.6-19.5-19.2-39.1-1.9-60.2c16.1-19.6,32.5-39.2,46.1-60.5c73.1-115,47.6-264.8-58.6-350
	C577.2-17.4,421.8-9.5,325.6,86.5C221.1,190.8,238,363,331,479.5C352.5,506.4,342.7,523.3,329.9,539.5L329.9,539.5z M953.4,817.2
	c-0.2-56.1-24.1-82.7-79.4-82.8c-239.5-0.5-479-0.4-718.5,0.3c-54.8,0.1-78.1,24.6-78.8,78.5c-0.3,25.2,0,50.4,0,78.5h876.7
	C953.4,865,953.5,841.1,953.4,817.2L953.4,817.2z M125.8,1011h776.7v-79.9H125.8V1011L125.8,1011z"/>
</svg>
