<?xml version="1.0" encoding="utf-8"?>
<!-- Generator: Adobe Illustrator 22.1.0, SVG Export Plug-In . SVG Version: 6.00 Build 0)  -->
<svg version="1.1" id="图层_1" xmlns="http://www.w3.org/2000/svg" xmlns:xlink="http://www.w3.org/1999/xlink" x="0px" y="0px"
	 viewBox="0 0 1024 1024" style="enable-background:new 0 0 1024 1024;" xml:space="preserve">
<style type="text/css">
	.st0{fill:#5CE1D7;}
</style>
<g>
	<path class="st0" d="M509.8,299.9c-115.5,0-209.1,93.6-209.1,209.1S394.3,718,509.8,718c115.4,0,209-93.5,209.1-209
		c0,0,0-0.1,0-0.1C718.8,393.5,625.2,299.9,509.8,299.9z M623.8,550.5c-23,62.9-92.6,95.3-155.5,72.3c-62.9-23-95.3-92.6-72.3-155.5
		v3.3h81.5v-78.4c10.5-2.9,21.3-4.4,32.2-4.4c14.3,0,28.4,2.5,41.8,7.3C614.5,418,646.8,487.6,623.8,550.5z"/>
	<path class="st0" d="M763.7,9H261.1C93.6,9,9.8,92.8,9.8,260.3v502.6c0,167.5,83.8,251.3,251.3,251.3h502.6
		c167.5,0,251.3-83.8,251.3-251.3V260.3C1015,92.8,931.2,9,763.7,9z M509.8,800.6c-221.9,0-327.7-289-327.7-289
		s105.8-289,327.7-289.1v0.1c222,0,333,289,333,289S731.7,800.6,509.8,800.6z"/>
</g>
</svg>
