<?xml version="1.0" encoding="utf-8"?>
<!-- Generator: Adobe Illustrator 22.1.0, SVG Export Plug-In . SVG Version: 6.00 Build 0)  -->
<svg version="1.1" id="图层_1" xmlns="http://www.w3.org/2000/svg" xmlns:xlink="http://www.w3.org/1999/xlink" x="0px" y="0px"
	 viewBox="0 0 1024 1024" style="enable-background:new 0 0 1024 1024;" xml:space="preserve">
<style type="text/css">
	.st0{fill:#1B71EB;}
</style>
<g>
	<path class="st0" d="M1019.1,516.1h-74.8c-0.1,0-0.3,0-0.5,0.1L845.7,562l-324,151.2c-0.3,0.1-0.7,0.1-0.9,0l-440.3-197
		c-0.1-0.1-0.3-0.1-0.5-0.1H5.1c-0.6,0-1.1,0.5-1.1,1.1v448.5c0,27.3,22.1,49.4,49.4,49.4h917.3c27.3,0,49.4-22.1,49.4-49.4V517.3
		C1020.3,516.7,1019.7,516.1,1019.1,516.1z"/>
	<path class="st0" d="M80.8,414.8l185.3,98.4l254.6,122.4c0.3,0.1,0.7,0.1,1,0l244.3-122.2l151.2-83.8l26.3-14.6
		c0.3-0.2,0.6-0.6,0.6-1V57.8C944.2,30.3,922,8,894.4,8H129.9c-27.4,0-49.8,22.2-49.8,49.8v356.1C80.3,414.2,80.5,414.7,80.8,414.8z
		 M267.3,134.2H757c15.7,0,28.5,12.9,28.5,28.5s-12.9,28.5-28.5,28.5H267.3c-15.6,0-28.5-12.8-28.5-28.5S251.7,134.2,267.3,134.2z
		 M267.3,316.4H757c15.7,0,28.5,12.9,28.5,28.5c0,15.6-12.9,28.5-28.5,28.5H267.3c-15.6,0-28.5-12.8-28.5-28.5
		S251.7,316.4,267.3,316.4z"/>
</g>
</svg>
