<?xml version="1.0" encoding="utf-8"?>
<!-- Generator: Adobe Illustrator 22.1.0, SVG Export Plug-In . SVG Version: 6.00 Build 0)  -->
<svg version="1.1" id="图层_1" xmlns="http://www.w3.org/2000/svg" xmlns:xlink="http://www.w3.org/1999/xlink" x="0px" y="0px"
	 viewBox="0 0 200 200" style="enable-background:new 0 0 200 200;" xml:space="preserve">
<style type="text/css">
	.st0{fill:#5A89FF;}
	.st1{fill:#FFFFFF;}
</style>
<g>
	<path class="st0" d="M0,100c0,55.2,44.8,100,100,100s100-44.8,100-100S155.2,0,100,0S0,44.8,0,100z"/>
	<path class="st1" d="M143.4,112.7l-3.3-3.4c-1.7-1.7-2.6-4-2.5-6.4c0.2-2.3,0.2-4.6,0-6.9c-0.2-2.4,0.7-4.7,2.4-6.3l3.4-3.4
		c2.6-2.6,3.1-6.7,1.2-9.9l-2-3.5c-1.9-3.2-5.6-4.8-9.2-3.9l-5.1,1.2c-2.3,0.6-4.8,0.1-6.8-1.3c-0.9-0.6-1.8-1.2-2.7-1.7
		c-0.9-0.5-1.9-1-2.7-1.4c-2.3-1-4-3-4.7-5.4l-1.3-4.5c-1-3.7-4.5-6.2-8.4-6.1h-4.2c-3.6,0.1-6.8,2.4-7.9,5.9L88.2,61
		c-0.6,2.2-2.1,4-4.2,5c-2.1,1-4,2.1-5.9,3.4c-2,1.4-4.4,1.8-6.7,1.3l-4.8-1.2c-3.7-0.8-7.4,0.8-9.2,4.1l-2.1,3.7
		c-1.8,3.2-1.3,7.3,1.3,9.9l3.3,3.4c1.7,1.7,2.6,4,2.5,6.4c-0.2,2.3-0.2,4.6,0,6.9c0.2,2.4-0.7,4.7-2.4,6.3l-3.4,3.4
		c-2.6,2.6-3.1,6.7-1.2,9.9l2,3.5c1.9,3.2,5.6,4.8,9.2,3.9l5.1-1.2c2.3-0.6,4.8-0.1,6.8,1.3c0.9,0.6,1.8,1.2,2.7,1.7
		c0.9,0.5,1.9,1,2.7,1.4c2.3,1,4,3,4.7,5.4l1.2,4.5c1,3.7,4.5,6.2,8.4,6.1h4.2c3.6-0.1,6.8-2.4,7.9-5.9l1.5-5.1c0.6-2.2,2.1-4,4.2-5
		c2.1-1,4-2.1,5.9-3.4c2-1.4,4.4-1.8,6.7-1.3l4.8,1.2c3.7,0.8,7.4-0.8,9.2-4.1l2.1-3.7C146.6,119.4,146,115.3,143.4,112.7z
		 M100.1,116.5c-9.1-0.1-16.4-7.6-16.3-16.7c0.1-9.1,7.6-16.4,16.7-16.3c9.1,0.1,16.3,7.5,16.3,16.5
		C116.7,109.2,109.3,116.6,100.1,116.5z"/>
</g>
</svg>
