<?xml version="1.0" encoding="utf-8"?>
<!-- Generator: Adobe Illustrator 22.1.0, SVG Export Plug-In . SVG Version: 6.00 Build 0)  -->
<svg version="1.1" id="图层_1" xmlns="http://www.w3.org/2000/svg" xmlns:xlink="http://www.w3.org/1999/xlink" x="0px" y="0px"
	 viewBox="0 0 1024 1024" style="enable-background:new 0 0 1024 1024;" xml:space="preserve">
<style type="text/css">
	.st0{fill:#F8E12C;}
</style>
<path class="st0" d="M679.6,510.8l138.6-147.4c47.3-49.5,72.6-114.4,72.6-181.5h-1.1V85.2c0-41.8-36.3-77-80.3-77H205.6
	c-44,0-80.3,34.1-80.3,77V182c0,67.1,26.4,132,72.6,181.5l138.6,147.4L197.9,658.2c-47.3,49.5-72.6,114.4-72.6,181.5v96.8
	c0,41.8,36.3,77,80.3,77h604.9c44,0,80.3-34.1,80.3-77v-96.8c0-67.1-25.3-132-72.6-181.5L679.6,510.8z M720.8,841.9
	c0,20.9-18.7,38.5-40.7,38.5H357.9c-23.1,0-40.7-17.6-40.7-38.5v-58.3h403.6V841.9z"/>
</svg>
