<?xml version="1.0" encoding="utf-8"?>
<!-- Generator: Adobe Illustrator 22.1.0, SVG Export Plug-In . SVG Version: 6.00 Build 0)  -->
<svg version="1.1" id="图层_1" xmlns="http://www.w3.org/2000/svg" xmlns:xlink="http://www.w3.org/1999/xlink" x="0px" y="0px"
	 viewBox="0 0 200 200" style="enable-background:new 0 0 200 200;" xml:space="preserve">
<style type="text/css">
	.st0{fill:#00D993;}
</style>
<g>
	<path class="st0" d="M45.1,100c0,30.3,24.6,54.9,54.9,54.9s54.9-24.6,54.9-54.9S130.3,45.1,100,45.1S45.1,69.7,45.1,100z"/>
	<path class="st0" d="M100,196c-53,0-96-43-96-96S47,4,100,4s96,43,96,96S153,196,100,196z M100,168.6c37.9,0,68.6-30.7,68.6-68.6
		S137.9,31.4,100,31.4S31.4,62.1,31.4,100S62.1,168.6,100,168.6z"/>
</g>
</svg>
